<mxfile host="app.diagrams.net" agent="Mozilla/5.0 (Windows NT 10.0; Win64; x64) AppleWebKit/537.36 (KHTML, like Gecko) Chrome/126.0.0.0 Safari/537.36" version="24.7.4">
  <diagram name="Page-1" id="ifkHMOIeZfvgHvwu8lR6">
    <mxGraphModel dx="2062" dy="665" grid="1" gridSize="10" guides="1" tooltips="1" connect="1" arrows="1" fold="1" page="1" pageScale="1" pageWidth="827" pageHeight="1169" math="0" shadow="0">
      <root>
        <mxCell id="0" />
        <mxCell id="1" parent="0" />
        <mxCell id="O-XVweY7GeAYTOieDj89-5" style="rounded=0;orthogonalLoop=1;jettySize=auto;html=1;exitX=0;exitY=0.5;exitDx=0;exitDy=0;entryX=1;entryY=0.5;entryDx=0;entryDy=0;endArrow=none;endFill=0;" edge="1" parent="1" source="O-XVweY7GeAYTOieDj89-9" target="O-XVweY7GeAYTOieDj89-128">
          <mxGeometry relative="1" as="geometry">
            <mxPoint x="-145" y="120" as="targetPoint" />
          </mxGeometry>
        </mxCell>
        <mxCell id="O-XVweY7GeAYTOieDj89-9" value="User" style="rounded=0;whiteSpace=wrap;html=1;" vertex="1" parent="1">
          <mxGeometry x="60" y="70" width="120" height="40" as="geometry" />
        </mxCell>
        <mxCell id="O-XVweY7GeAYTOieDj89-14" style="rounded=0;orthogonalLoop=1;jettySize=auto;html=1;entryX=1;entryY=1;entryDx=0;entryDy=0;endArrow=none;endFill=0;exitX=0;exitY=0.5;exitDx=0;exitDy=0;" edge="1" parent="1" target="O-XVweY7GeAYTOieDj89-61">
          <mxGeometry relative="1" as="geometry">
            <mxPoint x="60" y="520" as="sourcePoint" />
          </mxGeometry>
        </mxCell>
        <mxCell id="O-XVweY7GeAYTOieDj89-15" style="rounded=0;orthogonalLoop=1;jettySize=auto;html=1;exitX=0;exitY=0.75;exitDx=0;exitDy=0;entryX=1;entryY=0.5;entryDx=0;entryDy=0;endArrow=none;endFill=0;" edge="1" parent="1" target="O-XVweY7GeAYTOieDj89-62">
          <mxGeometry relative="1" as="geometry">
            <mxPoint x="60" y="530" as="sourcePoint" />
          </mxGeometry>
        </mxCell>
        <mxCell id="O-XVweY7GeAYTOieDj89-16" style="rounded=0;orthogonalLoop=1;jettySize=auto;html=1;exitX=1;exitY=0.5;exitDx=0;exitDy=0;entryX=0;entryY=0.5;entryDx=0;entryDy=0;endArrow=none;endFill=0;shape=link;" edge="1" parent="1" target="O-XVweY7GeAYTOieDj89-89">
          <mxGeometry relative="1" as="geometry">
            <mxPoint x="179.99999999999977" y="520" as="sourcePoint" />
          </mxGeometry>
        </mxCell>
        <mxCell id="O-XVweY7GeAYTOieDj89-20" style="rounded=0;orthogonalLoop=1;jettySize=auto;html=1;exitX=0;exitY=0;exitDx=0;exitDy=0;entryX=0.5;entryY=1;entryDx=0;entryDy=0;endArrow=none;endFill=0;" edge="1" parent="1" source="O-XVweY7GeAYTOieDj89-22" target="O-XVweY7GeAYTOieDj89-43">
          <mxGeometry relative="1" as="geometry" />
        </mxCell>
        <mxCell id="O-XVweY7GeAYTOieDj89-21" style="rounded=0;orthogonalLoop=1;jettySize=auto;html=1;exitX=0;exitY=0.25;exitDx=0;exitDy=0;entryX=1;entryY=1;entryDx=0;entryDy=0;endArrow=none;endFill=0;" edge="1" parent="1" source="O-XVweY7GeAYTOieDj89-22" target="O-XVweY7GeAYTOieDj89-46">
          <mxGeometry relative="1" as="geometry" />
        </mxCell>
        <mxCell id="O-XVweY7GeAYTOieDj89-22" value="Form" style="rounded=0;whiteSpace=wrap;html=1;" vertex="1" parent="1">
          <mxGeometry x="360" y="360" width="120" height="40" as="geometry" />
        </mxCell>
        <mxCell id="O-XVweY7GeAYTOieDj89-23" style="edgeStyle=orthogonalEdgeStyle;rounded=0;orthogonalLoop=1;jettySize=auto;html=1;exitX=1;exitY=0.5;exitDx=0;exitDy=0;entryX=0;entryY=0.5;entryDx=0;entryDy=0;endArrow=none;endFill=0;shape=link;" edge="1" parent="1" source="O-XVweY7GeAYTOieDj89-127" target="O-XVweY7GeAYTOieDj89-129">
          <mxGeometry relative="1" as="geometry">
            <mxPoint x="-120" y="380" as="sourcePoint" />
            <mxPoint x="-70" y="380" as="targetPoint" />
          </mxGeometry>
        </mxCell>
        <mxCell id="O-XVweY7GeAYTOieDj89-24" style="rounded=0;orthogonalLoop=1;jettySize=auto;html=1;exitX=0.5;exitY=0;exitDx=0;exitDy=0;entryX=0.5;entryY=1;entryDx=0;entryDy=0;endArrow=none;endFill=0;shape=link;" edge="1" parent="1" source="O-XVweY7GeAYTOieDj89-127" target="O-XVweY7GeAYTOieDj89-128">
          <mxGeometry relative="1" as="geometry">
            <mxPoint x="-180" y="360" as="sourcePoint" />
            <mxPoint x="-180" y="150" as="targetPoint" />
          </mxGeometry>
        </mxCell>
        <mxCell id="O-XVweY7GeAYTOieDj89-25" style="rounded=0;orthogonalLoop=1;jettySize=auto;html=1;exitX=0;exitY=0;exitDx=0;exitDy=0;entryX=0.5;entryY=1;entryDx=0;entryDy=0;endArrow=none;endFill=0;" edge="1" parent="1" source="O-XVweY7GeAYTOieDj89-127" target="O-XVweY7GeAYTOieDj89-119">
          <mxGeometry relative="1" as="geometry">
            <mxPoint x="-240" y="360" as="sourcePoint" />
            <mxPoint x="-300" y="310" as="targetPoint" />
          </mxGeometry>
        </mxCell>
        <mxCell id="O-XVweY7GeAYTOieDj89-26" style="rounded=0;orthogonalLoop=1;jettySize=auto;html=1;exitX=0;exitY=1;exitDx=0;exitDy=0;entryX=1;entryY=0.5;entryDx=0;entryDy=0;endArrow=none;endFill=0;" edge="1" parent="1" source="O-XVweY7GeAYTOieDj89-127" target="O-XVweY7GeAYTOieDj89-67">
          <mxGeometry relative="1" as="geometry">
            <mxPoint x="-240" y="390" as="sourcePoint" />
          </mxGeometry>
        </mxCell>
        <mxCell id="O-XVweY7GeAYTOieDj89-27" style="rounded=0;orthogonalLoop=1;jettySize=auto;html=1;exitX=0;exitY=0.75;exitDx=0;exitDy=0;entryX=1;entryY=0.5;entryDx=0;entryDy=0;endArrow=none;endFill=0;" edge="1" parent="1" source="O-XVweY7GeAYTOieDj89-127" target="O-XVweY7GeAYTOieDj89-68">
          <mxGeometry relative="1" as="geometry">
            <mxPoint x="-240" y="380" as="sourcePoint" />
          </mxGeometry>
        </mxCell>
        <mxCell id="O-XVweY7GeAYTOieDj89-28" style="rounded=0;orthogonalLoop=1;jettySize=auto;html=1;exitX=0;exitY=0.25;exitDx=0;exitDy=0;entryX=1;entryY=0.5;entryDx=0;entryDy=0;endArrow=none;endFill=0;" edge="1" parent="1" source="O-XVweY7GeAYTOieDj89-127" target="O-XVweY7GeAYTOieDj89-69">
          <mxGeometry relative="1" as="geometry">
            <mxPoint x="-240" y="370" as="sourcePoint" />
          </mxGeometry>
        </mxCell>
        <mxCell id="O-XVweY7GeAYTOieDj89-29" style="rounded=0;orthogonalLoop=1;jettySize=auto;html=1;exitX=0;exitY=0;exitDx=0;exitDy=0;entryX=1;entryY=1;entryDx=0;entryDy=0;endArrow=none;endFill=0;" edge="1" parent="1" source="O-XVweY7GeAYTOieDj89-32" target="O-XVweY7GeAYTOieDj89-47">
          <mxGeometry relative="1" as="geometry" />
        </mxCell>
        <mxCell id="O-XVweY7GeAYTOieDj89-30" style="rounded=0;orthogonalLoop=1;jettySize=auto;html=1;exitX=0.25;exitY=0;exitDx=0;exitDy=0;entryX=0.5;entryY=1;entryDx=0;entryDy=0;endArrow=none;endFill=0;" edge="1" parent="1" source="O-XVweY7GeAYTOieDj89-32" target="O-XVweY7GeAYTOieDj89-48">
          <mxGeometry relative="1" as="geometry" />
        </mxCell>
        <mxCell id="O-XVweY7GeAYTOieDj89-31" style="rounded=0;orthogonalLoop=1;jettySize=auto;html=1;exitX=0.5;exitY=1;exitDx=0;exitDy=0;endArrow=none;endFill=0;" edge="1" parent="1" source="O-XVweY7GeAYTOieDj89-32">
          <mxGeometry relative="1" as="geometry">
            <mxPoint x="120" y="420" as="targetPoint" />
          </mxGeometry>
        </mxCell>
        <mxCell id="O-XVweY7GeAYTOieDj89-32" value="Submission" style="rounded=0;whiteSpace=wrap;html=1;" vertex="1" parent="1">
          <mxGeometry x="60" y="360" width="120" height="40" as="geometry" />
        </mxCell>
        <mxCell id="O-XVweY7GeAYTOieDj89-43" value="&lt;u&gt;Id&lt;/u&gt;" style="ellipse;whiteSpace=wrap;html=1;" vertex="1" parent="1">
          <mxGeometry x="280" y="250" width="65" height="30" as="geometry" />
        </mxCell>
        <mxCell id="O-XVweY7GeAYTOieDj89-46" value="CreatedAt" style="ellipse;whiteSpace=wrap;html=1;" vertex="1" parent="1">
          <mxGeometry x="230" y="280" width="90" height="40" as="geometry" />
        </mxCell>
        <mxCell id="O-XVweY7GeAYTOieDj89-47" value="SubmissionDate" style="ellipse;whiteSpace=wrap;html=1;" vertex="1" parent="1">
          <mxGeometry x="-50" y="290" width="100" height="40" as="geometry" />
        </mxCell>
        <mxCell id="O-XVweY7GeAYTOieDj89-48" value="&lt;u&gt;Id&lt;/u&gt;" style="ellipse;whiteSpace=wrap;html=1;" vertex="1" parent="1">
          <mxGeometry x="30" y="265" width="70" height="30" as="geometry" />
        </mxCell>
        <mxCell id="O-XVweY7GeAYTOieDj89-49" style="edgeStyle=orthogonalEdgeStyle;rounded=0;orthogonalLoop=1;jettySize=auto;html=1;exitX=0;exitY=0.5;exitDx=0;exitDy=0;endArrow=none;endFill=0;shape=link;" edge="1" parent="1" source="O-XVweY7GeAYTOieDj89-51" target="O-XVweY7GeAYTOieDj89-32">
          <mxGeometry relative="1" as="geometry" />
        </mxCell>
        <mxCell id="O-XVweY7GeAYTOieDj89-50" style="edgeStyle=orthogonalEdgeStyle;rounded=0;orthogonalLoop=1;jettySize=auto;html=1;exitX=1;exitY=0.5;exitDx=0;exitDy=0;entryX=0;entryY=0.5;entryDx=0;entryDy=0;endArrow=none;endFill=0;" edge="1" parent="1" source="O-XVweY7GeAYTOieDj89-51" target="O-XVweY7GeAYTOieDj89-22">
          <mxGeometry relative="1" as="geometry" />
        </mxCell>
        <mxCell id="O-XVweY7GeAYTOieDj89-51" value="refer" style="rhombus;whiteSpace=wrap;html=1;" vertex="1" parent="1">
          <mxGeometry x="240" y="350" width="70" height="60" as="geometry" />
        </mxCell>
        <mxCell id="O-XVweY7GeAYTOieDj89-52" value="1" style="text;html=1;align=center;verticalAlign=middle;whiteSpace=wrap;rounded=0;" vertex="1" parent="1">
          <mxGeometry x="330" y="360" width="30" height="20" as="geometry" />
        </mxCell>
        <mxCell id="O-XVweY7GeAYTOieDj89-53" value="N" style="text;html=1;align=center;verticalAlign=middle;whiteSpace=wrap;rounded=0;" vertex="1" parent="1">
          <mxGeometry x="180" y="360" width="30" height="20" as="geometry" />
        </mxCell>
        <mxCell id="O-XVweY7GeAYTOieDj89-54" style="edgeStyle=orthogonalEdgeStyle;rounded=0;orthogonalLoop=1;jettySize=auto;html=1;exitX=0.5;exitY=1;exitDx=0;exitDy=0;entryX=0.5;entryY=0;entryDx=0;entryDy=0;endArrow=none;endFill=0;" edge="1" parent="1" source="O-XVweY7GeAYTOieDj89-56" target="O-XVweY7GeAYTOieDj89-32">
          <mxGeometry relative="1" as="geometry" />
        </mxCell>
        <mxCell id="O-XVweY7GeAYTOieDj89-55" style="rounded=0;orthogonalLoop=1;jettySize=auto;html=1;exitX=0.5;exitY=0;exitDx=0;exitDy=0;entryX=0.5;entryY=1;entryDx=0;entryDy=0;endArrow=none;endFill=0;" edge="1" parent="1" source="O-XVweY7GeAYTOieDj89-56" target="O-XVweY7GeAYTOieDj89-9">
          <mxGeometry relative="1" as="geometry" />
        </mxCell>
        <mxCell id="O-XVweY7GeAYTOieDj89-56" value="has" style="rhombus;whiteSpace=wrap;html=1;" vertex="1" parent="1">
          <mxGeometry x="85" y="205" width="70" height="60" as="geometry" />
        </mxCell>
        <mxCell id="O-XVweY7GeAYTOieDj89-57" value="N" style="text;html=1;align=center;verticalAlign=middle;whiteSpace=wrap;rounded=0;" vertex="1" parent="1">
          <mxGeometry x="120" y="340" width="30" height="20" as="geometry" />
        </mxCell>
        <mxCell id="O-XVweY7GeAYTOieDj89-58" style="rounded=0;orthogonalLoop=1;jettySize=auto;html=1;exitX=0.5;exitY=1;exitDx=0;exitDy=0;entryX=0.5;entryY=0;entryDx=0;entryDy=0;endArrow=none;endFill=0;shape=link;" edge="1" parent="1">
          <mxGeometry relative="1" as="geometry">
            <mxPoint x="120" y="475" as="sourcePoint" />
            <mxPoint x="120" y="500" as="targetPoint" />
          </mxGeometry>
        </mxCell>
        <mxCell id="O-XVweY7GeAYTOieDj89-59" value="1" style="text;html=1;align=center;verticalAlign=middle;whiteSpace=wrap;rounded=0;" vertex="1" parent="1">
          <mxGeometry x="120" y="400" width="30" height="20" as="geometry" />
        </mxCell>
        <mxCell id="O-XVweY7GeAYTOieDj89-60" value="N" style="text;html=1;align=center;verticalAlign=middle;whiteSpace=wrap;rounded=0;" vertex="1" parent="1">
          <mxGeometry x="130" y="475" width="30" height="20" as="geometry" />
        </mxCell>
        <mxCell id="O-XVweY7GeAYTOieDj89-61" value="&lt;u&gt;Id&lt;/u&gt;" style="ellipse;whiteSpace=wrap;html=1;" vertex="1" parent="1">
          <mxGeometry x="-61.25" y="450" width="65" height="30" as="geometry" />
        </mxCell>
        <mxCell id="O-XVweY7GeAYTOieDj89-62" value="Answer" style="ellipse;whiteSpace=wrap;html=1;" vertex="1" parent="1">
          <mxGeometry x="-80" y="490" width="100" height="40" as="geometry" />
        </mxCell>
        <mxCell id="O-XVweY7GeAYTOieDj89-63" style="edgeStyle=orthogonalEdgeStyle;rounded=0;orthogonalLoop=1;jettySize=auto;html=1;exitX=1;exitY=0.5;exitDx=0;exitDy=0;entryX=0;entryY=0.5;entryDx=0;entryDy=0;endArrow=none;endFill=0;" edge="1" parent="1" source="O-XVweY7GeAYTOieDj89-129" target="O-XVweY7GeAYTOieDj89-32">
          <mxGeometry relative="1" as="geometry">
            <mxPoint y="380" as="sourcePoint" />
          </mxGeometry>
        </mxCell>
        <mxCell id="O-XVweY7GeAYTOieDj89-64" value="1" style="text;html=1;align=center;verticalAlign=middle;whiteSpace=wrap;rounded=0;" vertex="1" parent="1">
          <mxGeometry x="30" y="360" width="30" height="20" as="geometry" />
        </mxCell>
        <mxCell id="O-XVweY7GeAYTOieDj89-65" value="1" style="text;html=1;align=center;verticalAlign=middle;whiteSpace=wrap;rounded=0;" vertex="1" parent="1">
          <mxGeometry x="-90" y="360" width="30" height="20" as="geometry" />
        </mxCell>
        <mxCell id="O-XVweY7GeAYTOieDj89-66" value="N" style="text;html=1;align=center;verticalAlign=middle;whiteSpace=wrap;rounded=0;" vertex="1" parent="1">
          <mxGeometry x="-140" y="340" width="20" height="20" as="geometry" />
        </mxCell>
        <mxCell id="O-XVweY7GeAYTOieDj89-67" value="Status" style="ellipse;whiteSpace=wrap;html=1;" vertex="1" parent="1">
          <mxGeometry x="-320" y="397.5" width="100" height="40" as="geometry" />
        </mxCell>
        <mxCell id="O-XVweY7GeAYTOieDj89-68" value="FinalNote" style="ellipse;whiteSpace=wrap;html=1;" vertex="1" parent="1">
          <mxGeometry x="-335" y="357.5" width="100" height="40" as="geometry" />
        </mxCell>
        <mxCell id="O-XVweY7GeAYTOieDj89-69" value="ReviewDate" style="ellipse;whiteSpace=wrap;html=1;" vertex="1" parent="1">
          <mxGeometry x="-325" y="317.5" width="100" height="40" as="geometry" />
        </mxCell>
        <mxCell id="O-XVweY7GeAYTOieDj89-70" value="NoteText" style="ellipse;whiteSpace=wrap;html=1;" vertex="1" parent="1">
          <mxGeometry x="-70" y="540" width="70" height="30" as="geometry" />
        </mxCell>
        <mxCell id="O-XVweY7GeAYTOieDj89-83" value="Question" style="rounded=0;whiteSpace=wrap;html=1;" vertex="1" parent="1">
          <mxGeometry x="354" y="500" width="120" height="40" as="geometry" />
        </mxCell>
        <mxCell id="O-XVweY7GeAYTOieDj89-88" style="rounded=0;orthogonalLoop=1;jettySize=auto;html=1;exitX=1;exitY=0.5;exitDx=0;exitDy=0;entryX=0;entryY=0.5;entryDx=0;entryDy=0;endArrow=none;endFill=0;" edge="1" parent="1" source="O-XVweY7GeAYTOieDj89-89" target="O-XVweY7GeAYTOieDj89-83">
          <mxGeometry relative="1" as="geometry" />
        </mxCell>
        <mxCell id="O-XVweY7GeAYTOieDj89-89" value="has" style="rhombus;whiteSpace=wrap;html=1;" vertex="1" parent="1">
          <mxGeometry x="220" y="490" width="70" height="60" as="geometry" />
        </mxCell>
        <mxCell id="O-XVweY7GeAYTOieDj89-90" value="1" style="text;html=1;align=center;verticalAlign=middle;whiteSpace=wrap;rounded=0;" vertex="1" parent="1">
          <mxGeometry x="180" y="500" width="30" height="20" as="geometry" />
        </mxCell>
        <mxCell id="O-XVweY7GeAYTOieDj89-91" value="1" style="text;html=1;align=center;verticalAlign=middle;whiteSpace=wrap;rounded=0;" vertex="1" parent="1">
          <mxGeometry x="345" y="455" width="30" height="20" as="geometry" />
        </mxCell>
        <mxCell id="O-XVweY7GeAYTOieDj89-117" style="rounded=0;orthogonalLoop=1;jettySize=auto;html=1;exitX=0.5;exitY=1;exitDx=0;exitDy=0;entryX=1;entryY=0;entryDx=0;entryDy=0;endArrow=none;endFill=0;" edge="1" parent="1" source="O-XVweY7GeAYTOieDj89-118" target="O-XVweY7GeAYTOieDj89-22">
          <mxGeometry relative="1" as="geometry" />
        </mxCell>
        <mxCell id="O-XVweY7GeAYTOieDj89-118" value="Language" style="ellipse;whiteSpace=wrap;html=1;" vertex="1" parent="1">
          <mxGeometry x="480" y="260" width="70" height="40" as="geometry" />
        </mxCell>
        <mxCell id="O-XVweY7GeAYTOieDj89-119" value="Id" style="ellipse;whiteSpace=wrap;html=1;align=center;fontStyle=4" vertex="1" parent="1">
          <mxGeometry x="-280" y="277.5" width="100" height="40" as="geometry" />
        </mxCell>
        <mxCell id="O-XVweY7GeAYTOieDj89-120" style="rounded=0;orthogonalLoop=1;jettySize=auto;html=1;exitX=0;exitY=1;exitDx=0;exitDy=0;entryX=1;entryY=0.5;entryDx=0;entryDy=0;endArrow=none;endFill=0;" edge="1" parent="1" target="O-XVweY7GeAYTOieDj89-70">
          <mxGeometry relative="1" as="geometry">
            <mxPoint x="60" y="540" as="sourcePoint" />
          </mxGeometry>
        </mxCell>
        <mxCell id="O-XVweY7GeAYTOieDj89-121" value="NoteText only exists if a Review exists for that Submission" style="shape=note;size=20;whiteSpace=wrap;html=1;" vertex="1" parent="1">
          <mxGeometry x="-240" y="440" width="145" height="140" as="geometry" />
        </mxCell>
        <mxCell id="O-XVweY7GeAYTOieDj89-122" value="1" style="text;html=1;align=center;verticalAlign=middle;whiteSpace=wrap;rounded=0;" vertex="1" parent="1">
          <mxGeometry x="30" y="70" width="30" height="20" as="geometry" />
        </mxCell>
        <mxCell id="O-XVweY7GeAYTOieDj89-123" value="1" style="text;html=1;align=center;verticalAlign=middle;whiteSpace=wrap;rounded=0;" vertex="1" parent="1">
          <mxGeometry x="90" y="110" width="30" height="20" as="geometry" />
        </mxCell>
        <mxCell id="O-XVweY7GeAYTOieDj89-125" value="has" style="rhombus;whiteSpace=wrap;html=1;" vertex="1" parent="1">
          <mxGeometry x="85" y="420" width="70" height="60" as="geometry" />
        </mxCell>
        <mxCell id="O-XVweY7GeAYTOieDj89-126" value="AnsweredQuestion" style="rounded=0;whiteSpace=wrap;html=1;" vertex="1" parent="1">
          <mxGeometry x="60" y="500" width="120" height="40" as="geometry" />
        </mxCell>
        <mxCell id="O-XVweY7GeAYTOieDj89-127" value="Review" style="rounded=0;whiteSpace=wrap;html=1;" vertex="1" parent="1">
          <mxGeometry x="-205" y="360" width="120" height="40" as="geometry" />
        </mxCell>
        <mxCell id="O-XVweY7GeAYTOieDj89-128" value="by" style="rhombus;whiteSpace=wrap;html=1;" vertex="1" parent="1">
          <mxGeometry x="-180" y="60" width="70" height="60" as="geometry" />
        </mxCell>
        <mxCell id="O-XVweY7GeAYTOieDj89-129" value="has" style="rhombus;whiteSpace=wrap;html=1;" vertex="1" parent="1">
          <mxGeometry x="-48.75" y="350" width="70" height="60" as="geometry" />
        </mxCell>
      </root>
    </mxGraphModel>
  </diagram>
</mxfile>
